<svg width="189" height="33" viewBox="0 0 189 33" fill="none" xmlns="http://www.w3.org/2000/svg">
<path d="M7.38666 27L2.45466 1.8H5.80266L9.15066 18.828L12.4987 1.8H15.8467L10.8787 27H7.38666ZM18.5211 27V1.8H21.8691V27H18.5211ZM24.5328 27V1.8H27.8808L34.5768 18.612V1.8H37.9248V27H34.5768L27.8808 10.188V27H24.5328ZM45.1076 27V5.148H40.1036V1.8H53.4596V5.148H48.4556V27H45.1076ZM52.7647 27.036L57.8407 1.836H61.1167L66.1207 27.036H62.7727L61.8007 22.32H57.0127L56.1127 27.036H52.7647ZM57.6607 19.008H61.2247L59.4967 10.044L57.6607 19.008ZM70.2967 27C69.5767 27 68.9647 26.748 68.4607 26.244C67.9567 25.74 67.7047 25.128 67.7047 24.408V4.356C67.7047 3.66 67.9567 3.06 68.4607 2.556C68.9647 2.052 69.5767 1.8 70.2967 1.8H78.4687C79.1887 1.8 79.8007 2.052 80.3047 2.556C80.8087 3.06 81.0607 3.66 81.0607 4.356V9.972L77.7127 9.216V6.408C77.7127 6.048 77.5807 5.748 77.3167 5.508C77.0767 5.244 76.7767 5.112 76.4167 5.112H72.3487C71.9887 5.112 71.6767 5.244 71.4127 5.508C71.1727 5.748 71.0527 6.048 71.0527 6.408V22.356C71.0527 22.716 71.1727 23.028 71.4127 23.292C71.6767 23.532 71.9887 23.652 72.3487 23.652H76.4167C76.7767 23.652 77.0767 23.532 77.3167 23.292C77.5807 23.028 77.7127 22.716 77.7127 22.356V18.864H74.4007L75.1567 15.516H81.0607V24.408C81.0607 25.128 80.8087 25.74 80.3047 26.244C79.8007 26.748 79.1887 27 78.4687 27H70.2967ZM84.0875 27V1.8H97.4795V5.112H87.4355V11.376H94.1315L93.3755 14.724H87.4355V23.652H97.4795V27H84.0875ZM109.566 27C108.894 27 108.294 26.748 107.766 26.244C107.238 25.74 106.974 25.128 106.974 24.408V4.392C106.974 3.696 107.238 3.096 107.766 2.592C108.294 2.064 108.894 1.8 109.566 1.8H117.738C118.482 1.8 119.094 2.064 119.574 2.592C120.078 3.096 120.33 3.696 120.33 4.392V9.072L116.982 9.828V6.444C116.982 6.108 116.862 5.808 116.622 5.544C116.406 5.28 116.106 5.148 115.722 5.148H111.618C111.282 5.148 110.982 5.28 110.718 5.544C110.454 5.808 110.322 6.108 110.322 6.444V22.356C110.322 22.74 110.454 23.052 110.718 23.292C110.982 23.532 111.282 23.652 111.618 23.652H115.722C116.106 23.652 116.406 23.532 116.622 23.292C116.862 23.052 116.982 22.74 116.982 22.356V19.728L120.33 18.936V24.408C120.33 25.128 120.078 25.74 119.574 26.244C119.094 26.748 118.482 27 117.738 27H109.566ZM123.005 27V1.8H126.353V27H123.005ZM133.174 27V5.148H128.17V1.8H141.526V5.148H136.522V27H133.174ZM148.258 27V14.76L143.326 1.8H146.674L149.95 10.404L153.19 1.8H156.538L151.606 14.76V27H148.258Z" fill="#1B191D"/>
<rect x="164" y="2" width="7" height="7" fill="#EFF240"/>
<rect x="164" y="11" width="7" height="7" fill="#4CF123"/>
<rect x="164" y="20" width="7" height="7" fill="#E93F3F"/>
<rect x="173" y="2" width="7" height="7" fill="#9721DF"/>
<rect x="173" y="11" width="7" height="7" fill="#E93F3F"/>
<rect x="182" y="2" width="7" height="7" fill="#EFF240"/>
<rect x="182" y="11" width="7" height="7" fill="#4CF123"/>
<rect x="182" y="20" width="7" height="7" fill="#E93F3F"/>
</svg>
